/* XPM */
static char * icewm_xpm[] = {
"32 20 56 1",
" 	c None",
".	c #3DA2D8",
"+	c #3EA3D9",
"@	c #399DD4",
"#	c #3A9ED5",
"$	c #3B9FD6",
"%	c #379AD2",
"&	c #379BD2",
"*	c #389DD4",
"=	c #3396CE",
"-	c #3497CF",
";	c #3699D1",
">	c #3599D0",
",	c #3092CB",
"'	c #3093CC",
")	c #2E90CA",
"!	c #2F91CA",
"~	c #2E91CA",
"{	c #2D8FC8",
"]	c #298BC5",
"^	c #2A8CC6",
"/	c #2486C0",
"(	c #2687C2",
"_	c #1F80BB",
":	c #2283BE",
"<	c #1B7AB7",
"[	c #1B7AB6",
"}	c #1F7FBB",
"|	c #1574B1",
"1	c #1C7CB8",
"2	c #1B7BB8",
"3	c #106EAD",
"4	c #0F6DAC",
"5	c #0F6DAB",
"6	c #1978B5",
"7	c #1878B5",
"8	c #0B68A7",
"9	c #0966A6",
"0	c #0967A6",
"a	c #0B68A8",
"b	c #1574B2",
"c	c #0663A3",
"d	c #0562A2",
"e	c #0461A1",
"f	c #0561A2",
"g	c #1270AE",
"h	c #015E9E",
"i	c #025E9F",
"j	c #0F6CAB",
"k	c #0E6CAB",
"l	c #0E6BAA",
"m	c #0B69A8",
"n	c #0966A5",
"o	c #0865A4",
"p	c #0865A5",
"q	c #0561A1",
"                                ",
"             ....+              ",
"           @###$                ",
"          %%%%  &@@@@*          ",
"         ====- =-;   >-=        ",
"        ,'''' )!       ~)       ",
"        {{{{  ]        ^]       ",
"       ]]]]]  /         /       ",
"       ((((( __         _       ",
"       ::::: <[         <       ",
"       _}}}}  |         |       ",
"       111112 34       53       ",
"       677777  89     0a        ",
"        bbbbbb  cdeefdc         ",
"        ggggggg   hhi           ",
"         jjjjjjkl    ll4        ",
"          aaaaaaaaaaaam         ",
"           noooooooopn          ",
"             dfqqqdd            ",
"                                "};
