/* XPM */
static char * icewm2_xpm[] = {
"50 20 448 2",
"  	c #21242B",
". 	c #21252D",
"+ 	c #222A34",
"@ 	c #22303D",
"# 	c #24384A",
"$ 	c #254358",
"% 	c #274B63",
"& 	c #28516C",
"* 	c #295571",
"= 	c #2A5774",
"- 	c #2A5874",
"; 	c #28506B",
"> 	c #254257",
", 	c #243849",
"' 	c #222E3A",
") 	c #212730",
"! 	c #222D39",
"~ 	c #243A4C",
"{ 	c #264A62",
"] 	c #295A79",
"^ 	c #2D6B8F",
"/ 	c #327AA4",
"( 	c #3585B2",
"_ 	c #378DBD",
": 	c #3992C3",
"< 	c #3992C4",
"[ 	c #388FBF",
"} 	c #3688B6",
"| 	c #337FAA",
"1 	c #31749B",
"2 	c #2D6688",
"3 	c #233444",
"4 	c #222C38",
"5 	c #222C37",
"6 	c #233B4E",
"7 	c #27506B",
"8 	c #2B668A",
"9 	c #317CA7",
"0 	c #358BBC",
"a 	c #3795C9",
"b 	c #3A9ACF",
"c 	c #399ACF",
"d 	c #3895C9",
"e 	c #368DBE",
"f 	c #3483AF",
"g 	c #3178A1",
"h 	c #2E6E94",
"i 	c #2C688C",
"j 	c #2C6588",
"k 	c #2B6386",
"l 	c #2B6283",
"m 	c #2A5E7E",
"n 	c #295775",
"o 	c #274E68",
"p 	c #254259",
"q 	c #233647",
"r 	c #21272F",
"s 	c #22313F",
"t 	c #24465F",
"u 	c #296083",
"v 	c #2E7AA6",
"w 	c #328ABD",
"x 	c #3595CA",
"y 	c #3799D0",
"z 	c #3695CB",
"A 	c #348CBD",
"B 	c #307DA9",
"C 	c #2C6C93",
"D 	c #2B668B",
"E 	c #2C6B91",
"F 	c #2E759E",
"G 	c #307CA7",
"H 	c #3281AE",
"I 	c #3383B1",
"J 	c #3384B2",
"K 	c #3180AD",
"L 	c #307AA6",
"M 	c #2D719A",
"N 	c #2A6286",
"O 	c #264E6A",
"P 	c #233B4F",
"Q 	c #222C39",
"R 	c #21262F",
"S 	c #223445",
"T 	c #254B65",
"U 	c #2A688F",
"V 	c #2E81B1",
"W 	c #328FC4",
"X 	c #3495CD",
"Y 	c #3496CE",
"Z 	c #3496CD",
"` 	c #3290C5",
" .	c #3083B4",
"..	c #2C7099",
"+.	c #296387",
"@.	c #2A6990",
"#.	c #2C76A2",
"$.	c #2F80AF",
"%.	c #2F7FAD",
"&.	c #2E78A3",
"*.	c #2C6F96",
"=.	c #2B688D",
"-.	c #2B6589",
";.	c #2D6F98",
">.	c #2F78A4",
",.	c #2F7FAE",
"'.	c #286185",
").	c #244863",
"!.	c #223242",
"~.	c #222F3D",
"{.	c #28688F",
"].	c #2C80B0",
"^.	c #308FC5",
"/.	c #3193CB",
"(.	c #3194CC",
"_.	c #308EC4",
":.	c #2D80B1",
"<.	c #296A93",
"[.	c #276288",
"}.	c #286992",
"|.	c #2B79A8",
"1.	c #2A6D97",
"2.	c #275A7C",
"3.	c #254861",
"4.	c #233A4D",
"5.	c #223140",
"6.	c #222E3B",
"7.	c #223241",
"8.	c #254862",
"9.	c #275A7B",
"0.	c #2B7AAA",
"a.	c #2A77A6",
"b.	c #27678F",
"c.	c #244965",
"d.	c #223343",
"e.	c #233D53",
"f.	c #265D81",
"g.	c #2A7CAD",
"h.	c #2C89C1",
"i.	c #2E8FC8",
"j.	c #2E90C9",
"k.	c #2D8DC5",
"l.	c #2B82B5",
"m.	c #29709C",
"n.	c #255C81",
"o.	c #266690",
"p.	c #2773A2",
"q.	c #2873A2",
"r.	c #26638B",
"s.	c #244761",
"t.	c #223243",
"u.	c #212933",
"v.	c #244864",
"w.	c #266087",
"x.	c #2874A4",
"y.	c #2773A3",
"z.	c #245E85",
"A.	c #22445E",
"B.	c #212B37",
"C.	c #234D6B",
"D.	c #266C97",
"E.	c #2983BA",
"F.	c #2A8BC5",
"G.	c #2A8CC6",
"H.	c #2A8BC4",
"I.	c #2985BC",
"J.	c #2775A5",
"K.	c #25648D",
"L.	c #235B82",
"M.	c #236A98",
"N.	c #2473A4",
"O.	c #23648E",
"P.	c #224B69",
"Q.	c #212C39",
"R.	c #213242",
"S.	c #224764",
"T.	c #246591",
"U.	c #2470A1",
"V.	c #236894",
"W.	c #224F70",
"X.	c #213142",
"Y.	c #23587D",
"Z.	c #2574A6",
"`.	c #2783BC",
" +	c #2788C3",
".+	c #2786C0",
"++	c #2680B7",
"@+	c #256E9D",
"#+	c #235E86",
"$+	c #215B83",
"%+	c #216898",
"&+	c #216C9E",
"*+	c #21587F",
"=+	c #213F58",
"-+	c #212832",
";+	c #212A36",
">+	c #213C54",
",+	c #215A82",
"'+	c #216897",
")+	c #216796",
"!+	c #215378",
"~+	c #21364B",
"{+	c #225C84",
"]+	c #2376AB",
"^+	c #2481BB",
"/+	c #2484C0",
"(+	c #2482BE",
"_+	c #247CB5",
":+	c #236B9B",
"<+	c #215B84",
"[+	c #205780",
"}+	c #1E6394",
"|+	c #1D6799",
"1+	c #1F547C",
"2+	c #203D57",
"3+	c #212731",
"4+	c #212A37",
"5+	c #203A53",
"6+	c #1F567F",
"7+	c #1E6393",
"8+	c #1E6292",
"9+	c #1F4F74",
"0+	c #213449",
"a+	c #215A84",
"b+	c #2074AA",
"c+	c #207DB8",
"d+	c #2080BC",
"e+	c #207FBA",
"f+	c #207AB4",
"g+	c #206C9E",
"h+	c #205B86",
"i+	c #1F5178",
"j+	c #1C5D8C",
"k+	c #1A6497",
"l+	c #1C5784",
"m+	c #1E4263",
"n+	c #202B39",
"o+	c #21242C",
"p+	c #21252C",
"q+	c #202E3F",
"r+	c #1F405F",
"s+	c #1C5987",
"t+	c #1A6294",
"u+	c #1C5A88",
"v+	c #1F4668",
"w+	c #212E3E",
"x+	c #20547C",
"y+	c #1E6DA2",
"z+	c #1D79B3",
"A+	c #1D7DB9",
"B+	c #1D7AB4",
"C+	c #1D70A7",
"D+	c #1E6190",
"E+	c #1E4E75",
"F+	c #1C527E",
"G+	c #195B8D",
"H+	c #185B8F",
"I+	c #1A507C",
"J+	c #1E3C5A",
"K+	c #202D3F",
"L+	c #202C3E",
"M+	c #1E3D5C",
"N+	c #1B4E7A",
"O+	c #185D90",
"P+	c #195C8E",
"Q+	c #1D4C74",
"R+	c #1F3953",
"S+	c #212834",
"T+	c #1F4A6D",
"U+	c #1D6394",
"V+	c #1A73AD",
"W+	c #1979B5",
"X+	c #1979B6",
"Y+	c #1978B5",
"Z+	c #1A74AF",
"`+	c #1B699F",
" @	c #1D5884",
".@	c #1D4D75",
"+@	c #1B4D78",
"@@	c #16578A",
"#@	c #15598D",
"$@	c #175282",
"%@	c #1B446C",
"&@	c #1E3855",
"*@	c #1F2E43",
"=@	c #202A39",
"-@	c #202836",
";@	c #202938",
">@	c #1E3755",
",@	c #1B446D",
"'@	c #175182",
")@	c #14598E",
"!@	c #175789",
"~@	c #1B4C76",
"{@	c #1F3955",
"]@	c #202C3B",
"^@	c #203B55",
"/@	c #1D547E",
"(@	c #196BA2",
"_@	c #1774B0",
":@	c #1675B2",
"<@	c #1674B1",
"[@	c #1770AA",
"}@	c #19669C",
"|@	c #1B5785",
"1@	c #1C4A72",
"2@	c #1B4972",
"3@	c #174E7E",
"4@	c #135489",
"5@	c #12548A",
"6@	c #145186",
"7@	c #164C7D",
"8@	c #174977",
"9@	c #184875",
"0@	c #174A78",
"a@	c #154C7E",
"b@	c #135085",
"c@	c #12558C",
"d@	c #14548A",
"e@	c #174F80",
"f@	c #1B466D",
"g@	c #1E3A58",
"h@	c #203044",
"i@	c #212935",
"j@	c #202F40",
"k@	c #1E4363",
"l@	c #1A5A8A",
"m@	c #1669A1",
"n@	c #1470AD",
"o@	c #1371AF",
"p@	c #1370AE",
"q@	c #146EAA",
"r@	c #16669F",
"s@	c #195C8F",
"t@	c #1B4F7A",
"u@	c #1B476E",
"v@	c #1A446C",
"w@	c #184774",
"x@	c #154C7D",
"y@	c #134F83",
"z@	c #125085",
"A@	c #115187",
"B@	c #115186",
"C@	c #154D7E",
"D@	c #184976",
"E@	c #1A4770",
"F@	c #1C466D",
"G@	c #1D456A",
"H@	c #1E3F5E",
"I@	c #203247",
"J@	c #1D4366",
"K@	c #195888",
"L@	c #14669E",
"M@	c #116BA8",
"N@	c #106EAB",
"O@	c #106EAC",
"P@	c #116DAA",
"Q@	c #126AA5",
"R@	c #14649D",
"S@	c #165C91",
"T@	c #185281",
"U@	c #1A4A75",
"V@	c #1B456C",
"W@	c #1B436A",
"X@	c #1A4269",
"Y@	c #1A436A",
"Z@	c #1A436B",
"`@	c #194D79",
" #	c #195281",
".#	c #195483",
"+#	c #1C4972",
"@#	c #1E3B59",
"##	c #202C3C",
"$#	c #21252E",
"%#	c #212833",
"&#	c #202F43",
"*#	c #1D4061",
"=#	c #19507E",
"-#	c #145E95",
";#	c #0F65A1",
">#	c #0D69A7",
",#	c #0C6AA8",
"'#	c #0C6AA9",
")#	c #0D67A4",
"!#	c #0E64A1",
"~#	c #10629D",
"{#	c #115F98",
"]#	c #135D94",
"^#	c #135B91",
"/#	c #145A91",
"(#	c #135B92",
"_#	c #125E95",
":#	c #125E97",
"<#	c #135E95",
"[#	c #1A4C76",
"}#	c #202D3E",
"|#	c #212631",
"1#	c #202B3C",
"2#	c #1E3651",
"3#	c #175283",
"4#	c #115C94",
"5#	c #0E629D",
"6#	c #0A64A1",
"7#	c #0965A3",
"8#	c #0866A4",
"9#	c #0866A5",
"0#	c #0965A4",
"a#	c #0A64A2",
"b#	c #0B63A0",
"c#	c #0C629E",
"d#	c #0F609A",
"e#	c #135A90",
"f#	c #18507F",
"g#	c #1C4367",
"h#	c #1F334C",
"i#	c #212733",
"j#	c #1E3652",
"k#	c #1B4166",
"l#	c #184B78",
"m#	c #145386",
"n#	c #10588F",
"o#	c #0D5C96",
"p#	c #0B5E9A",
"q#	c #095E9C",
"r#	c #095F9D",
"s#	c #095F9C",
"t#	c #0A5E9C",
"u#	c #0B5D9A",
"v#	c #0E5B95",
"w#	c #11578E",
"x#	c #155284",
"y#	c #194976",
"z#	c #1C3F63",
"A#	c #1F344E",
"B#	c #212630",
"C#	c #1E3550",
"D#	c #1C3C5D",
"E#	c #1A4167",
"F#	c #19446D",
"G#	c #184570",
"H#	c #184571",
"I#	c #194470",
"J#	c #19436D",
"K#	c #1B4066",
"L#	c #1C3B5B",
"M#	c #1E334E",
"N#	c #1F2E41",
"O#	c #202937",
"                            . + @ # $ % & * = - * ; % > , ' )                                       ",
"                        ) ! ~ { ] ^ / ( _ : < [ } | 1 2 * $ 3 4 ) .                                 ",
"                    . 5 6 7 8 9 0 a b c d e f g h i j k l m n o p q ! )                             ",
"                  r s t u v w x y y z A B C D E F G H I J I K L M N O P Q r                         ",
"                R S T U V W X Y Z `  ...+.@.#.$.%.&.*.=.-.=.;.>.,.,.#.'.).!.R                       ",
"                ~.).{.].^./.(./._.:.<.[.}.|.|.1.2.3.4.5.6.7.4.8.9.1.0.a.b.c.d.R                     ",
"                e.f.g.h.i.j.j.k.l.m.n.o.p.q.r.s.t.r .       . u.7.v.w.x.y.z.A.B.                    ",
"                C.D.E.F.G.G.H.I.J.K.L.M.N.O.P.Q.                . R.S.T.U.V.W.X.                    ",
"                Y.Z.`. + + +.+++@+#+$+%+&+*+=+-+                  ;+>+,+'+)+!+~+                    ",
"                {+]+^+/+/+/+(+_+:+<+[+}+|+1+2+3+                  4+5+6+7+8+9+0+                    ",
"                a+b+c+d+d+d+e+f+g+h+i+j+k+l+m+n+o+              p+q+r+s+t+u+v+w+                    ",
"                x+y+z+A+A+A+A+B+C+D+E+F+G+H+I+J+K+R p+      o+3+L+M+N+O+P+Q+R+S+                    ",
"                T+U+V+W+X+X+X+Y+Z+`+ @.@+@@@#@$@%@&@*@=@-@;@*@>@,@'@)@!@~@{@]@p+                    ",
"                ^@/@(@_@:@:@:@:@<@[@}@|@1@2@3@4@5@6@7@8@9@0@a@b@c@d@e@f@g@h@i@.                     ",
"                j@k@l@m@n@o@o@o@o@p@q@r@s@t@u@v@w@x@y@z@A@B@y@C@D@E@F@G@H@h@S+.                     ",
"                3+I@J@K@L@M@N@O@O@O@N@P@Q@R@S@T@U@V@W@X@Y@Y@Z@E@`@ #.#+#@###$#                      ",
"                p+%#&#*#=#-#;#>#,#'#'#'#,#>#)#!#~#{#]#^#/#(#_#:#<#@@[#J+}#|#                        ",
"                  p+R 1#2#V@3#4#5#6#7#8#8#9#9#8#0#7#a#6#b#c#d#e#f#g#h#=@$#                          ",
"                      p+i#L+j#k#l#m#n#o#p#q#r#s#r#t#u#v#w#x#y#z#A#1#B#p+                            ",
"                          $#3+=@*@C#D#E#F#G#H#H#H#I#J#K#L#M#N#O#B#p+                                "};
