/* XPM */
static char * closeO_xpm[] = {
"26 58 18 1",
" 	c #21242B",
".	c #494E52",
"+	c #4C5055",
"@	c #4C5155",
"#	c #4B4F54",
"$	c #805E62",
"%	c #B86F71",
"&	c #D77B7B",
"*	c #E88080",
"=	c #EB8181",
"-	c #C87577",
";	c #2F343F",
">	c #45617F",
",	c #5B8ABC",
"'	c #669FD9",
")	c #6CA8E6",
"!	c #6DAAE9",
"~	c #6195CB",
"                          ",
"                          ",
"                          ",
"                          ",
"                          ",
"                          ",
"          .+@@+.          ",
"        #$%&**&%$#        ",
"       @%========%@       ",
"      @-==========-@      ",
"     #%============%#     ",
"     $==============$     ",
"    .%====;;==;;====%.    ",
"    +&====;;;;;;====&+    ",
"    @*=====;;;;=====*@    ",
"    @*=====;;;;=====*@    ",
"    +&====;;;;;;====&+    ",
"    .%====;;==;;====%.    ",
"     $==============$     ",
"     #%============%#     ",
"      @-==========-@      ",
"       @%========%@       ",
"        #$%&**&%$#        ",
"          .+@@+.          ",
"                          ",
"                          ",
"                          ",
"                          ",
"                          ",
"                          ",
"                          ",
"                          ",
"                          ",
"                          ",
"                          ",
"                          ",
"         >,'))',>         ",
"        ,!!!!!!!!,        ",
"       ~!!!!!!!!!!~       ",
"      ,!!!!!!!!!!!!,      ",
"     >!!!!!!!!!!!!!!>     ",
"     ,!!!!;;!!;;!!!!,     ",
"     '!!!!;;;;;;!!!!'     ",
"     )!!!!!;;;;!!!!!)     ",
"     )!!!!!;;;;!!!!!)     ",
"     '!!!!;;;;;;!!!!'     ",
"     ,!!!!;;!!;;!!!!,     ",
"     >!!!!!!!!!!!!!!>     ",
"      ,!!!!!!!!!!!!,      ",
"       ~!!!!!!!!!!~       ",
"        ,!!!!!!!!,        ",
"         >,'))',>         ",
"                          ",
"                          ",
"                          ",
"                          ",
"                          ",
"                          "};
