/* XPM */
static char * rollupO_xpm[] = {
"26 58 3 1",
" 	c #21242B",
".	c #F5F6F7",
"+	c #6AA8E9",
"                          ",
"                          ",
"                          ",
"                          ",
"                          ",
"                          ",
"                          ",
"                          ",
"                          ",
"                          ",
"                          ",
"                          ",
"            ..            ",
"           ....           ",
"          ......          ",
"         ........         ",
"                          ",
"         ........         ",
"         ........         ",
"                          ",
"                          ",
"                          ",
"                          ",
"                          ",
"                          ",
"                          ",
"                          ",
"                          ",
"                          ",
"                          ",
"                          ",
"                          ",
"                          ",
"                          ",
"                          ",
"                          ",
"                          ",
"                          ",
"                          ",
"                          ",
"                          ",
"                          ",
"            ++            ",
"           ++++           ",
"          ++++++          ",
"         ++++++++         ",
"                          ",
"         ++++++++         ",
"         ++++++++         ",
"                          ",
"                          ",
"                          ",
"                          ",
"                          ",
"                          ",
"                          ",
"                          ",
"                          "};
